<svg xmlns="http://www.w3.org/2000/svg" width="576" height="398" viewBox="0 0 576 398">
  <defs>
    <linearGradient id="logoGradient" x1="0%" y1="0%" x2="100%" y2="100%">
      <stop offset="0%" style="stop-color:#6366f1"/>
      <stop offset="50%" style="stop-color:#a855f7"/>
      <stop offset="100%" style="stop-color:#22d3ee"/>
    </linearGradient>
  </defs>
  <path d="M 49.00 310.84 C42.67,316.40 37.05,320.95 36.50,320.95 C34.32,320.96 28.81,317.57 26.47,314.79 C21.72,309.14 22.36,307.42 41.93,273.07 C57.83,245.15 65.47,230.60 69.96,219.69 C73.69,210.62 73.82,210.46 79.48,207.57 C85.34,204.58 93.65,203.19 98.45,204.40 C100.34,204.87 101.00,205.69 101.00,207.56 C101.00,210.65 96.60,222.51 86.03,247.93 C81.61,258.55 78.00,267.63 78.00,268.10 C78.00,268.58 86.66,262.54 97.25,254.69 C164.09,205.13 189.16,190.00 204.45,190.00 C210.63,190.00 213.96,192.18 219.01,199.51 C222.46,204.53 229.38,221.07 235.72,239.47 C241.93,257.49 249.11,271.96 254.05,276.42 C255.41,277.66 256.32,278.50 257.39,279.05 C259.73,280.23 262.80,279.96 272.92,279.06 L 273.60 279.00 C298.81,276.77 320.09,270.51 349.22,256.77 C359.03,252.15 360.04,251.41 361.11,248.11 C362.92,242.50 367.97,232.86 381.16,209.78 C387.85,198.08 394.17,186.59 395.21,184.25 C397.18,179.81 402.66,176.00 407.07,176.00 C410.23,176.00 416.39,181.32 418.41,185.81 L 420.18 189.72 L 412.77 202.11 C395.25,231.39 388.00,245.51 388.00,250.32 C388.00,254.63 391.37,264.45 394.44,269.09 C397.92,274.34 405.73,276.47 421.50,276.45 C433.92,276.44 439.95,275.61 458.32,271.37 C482.83,265.73 502.63,258.57 518.30,249.70 C526.01,245.34 527.40,244.86 529.55,245.84 C531.45,246.71 532.00,247.72 532.00,250.38 C532.00,253.54 531.46,254.13 524.75,258.29 C500.56,273.28 462.29,288.32 432.04,294.73 C415.80,298.17 390.97,298.64 382.00,295.69 C369.58,291.59 361.28,282.83 358.90,271.29 L 357.63 265.17 L 345.87 271.06 C311.04,288.53 281.79,298.25 255.79,301.03 C246.49,302.02 244.33,301.95 239.29,300.50 C228.19,297.31 218.33,283.77 211.61,262.50 C208.42,252.42 204.00,234.40 204.00,231.51 C204.00,227.50 194.83,222.00 188.15,222.00 C176.63,222.00 144.27,237.86 117.00,256.88 C96.62,271.09 71.85,290.74 49.00,310.84 ZM 459.25 101.87 C456.92,103.06 453.06,104.30 450.69,104.63 C446.72,105.17 446.14,104.96 443.68,102.03 C440.25,97.96 439.62,95.30 440.24,87.55 C440.94,78.84 446.34,68.75 454.19,61.49 C459.94,56.16 460.28,56.00 465.81,56.03 C468.94,56.05 472.22,56.61 473.10,57.28 C474.98,58.72 478.00,64.29 478.00,66.34 C478.00,67.12 478.72,70.00 479.60,72.73 C481.15,77.52 481.13,77.83 478.95,82.09 C476.09,87.70 464.79,99.05 459.25,101.87 Z" fill="url(#logoGradient)"/>
</svg>
