<?xml version="1.0" encoding="UTF-8"?>
<svg version="1.1" xmlns="http://www.w3.org/2000/svg" width="149" height="163" viewBox="0 0 149 163">
<defs>
  <linearGradient id="logoGradient" x1="0%" y1="0%" x2="100%" y2="100%">
    <stop offset="0%" style="stop-color:#6366f1"/>
    <stop offset="50%" style="stop-color:#a855f7"/>
    <stop offset="100%" style="stop-color:#22d3ee"/>
  </linearGradient>
</defs>
<path d="M0,0 L4,0 L4,1 L5,1 L5,4 L6,4 L6,6 L5,6 L5,8 L4,8 L4,9 L3,9 L3,10 L2,10 L2,11 L1,11 L1,12 L-4,12 L-4,11 L-5,11 L-5,8 L-4,8 L-4,5 L-3,5 L-3,3 L-2,3 L-2,2 L-1,2 L-1,1 L0,1 Z" fill="url(#logoGradient)" transform="translate(121,27)"/>
<path d="M0,0 L3,0 L3,1 L4,1 L4,2 L5,2 L5,5 L4,5 L4,6 L3,6 L3,8 L2,8 L2,10 L1,10 L1,12 L0,12 L0,14 L-1,14 L-1,15 L-2,15 L-2,17 L-3,17 L-3,21 L-2,21 L-2,23 L-1,23 L-1,24 L0,24 L0,25 L3,25 L3,26 L9,26 L9,25 L14,25 L14,24 L18,24 L18,23 L22,23 L22,22 L24,22 L24,21 L27,21 L27,20 L29,20 L29,19 L31,19 L31,18 L34,18 L34,20 L33,20 L33,21 L31,21 L31,22 L30,22 L30,23 L28,23 L28,24 L26,24 L26,25 L24,25 L24,26 L21,26 L21,27 L18,27 L18,28 L16,28 L16,29 L12,29 L12,30 L8,30 L8,31 L-5,31 L-5,30 L-7,30 L-7,29 L-8,29 L-8,28 L-9,28 L-9,27 L-10,27 L-10,25 L-11,25 L-11,24 L-14,24 L-14,25 L-17,25 L-17,26 L-18,26 L-18,27 L-21,27 L-21,28 L-23,28 L-23,29 L-26,29 L-26,30 L-29,30 L-29,31 L-35,31 L-35,32 L-42,32 L-42,31 L-44,31 L-44,30 L-45,30 L-45,28 L-46,28 L-46,27 L-47,27 L-47,25 L-48,25 L-48,22 L-49,22 L-49,18 L-50,18 L-50,14 L-51,14 L-51,13 L-52,13 L-52,12 L-58,12 L-58,13 L-60,13 L-60,14 L-62,14 L-62,15 L-65,15 L-65,16 L-66,16 L-66,17 L-68,17 L-68,18 L-69,18 L-69,19 L-71,19 L-71,20 L-72,20 L-72,21 L-74,21 L-74,22 L-75,22 L-75,23 L-76,23 L-76,24 L-78,24 L-78,25 L-79,25 L-79,26 L-81,26 L-81,27 L-82,27 L-82,28 L-83,28 L-83,29 L-84,29 L-84,30 L-85,30 L-85,31 L-87,31 L-87,32 L-88,32 L-88,33 L-89,33 L-89,34 L-90,34 L-90,35 L-91,35 L-91,36 L-93,36 L-93,37 L-95,37 L-95,36 L-96,36 L-96,34 L-97,34 L-97,33 L-96,33 L-96,31 L-95,31 L-95,29 L-94,29 L-94,27 L-93,27 L-93,26 L-92,26 L-92,24 L-91,24 L-91,22 L-90,22 L-90,20 L-89,20 L-89,18 L-88,18 L-88,17 L-87,17 L-87,15 L-86,15 L-86,12 L-85,12 L-85,10 L-84,10 L-84,8 L-82,8 L-82,7 L-77,7 L-77,11 L-78,11 L-78,13 L-79,13 L-79,16 L-80,16 L-80,18 L-81,18 L-81,21 L-82,21 L-82,23 L-81,23 L-81,22 L-80,22 L-80,21 L-78,21 L-78,20 L-77,20 L-77,19 L-76,19 L-76,18 L-75,18 L-75,17 L-73,17 L-73,16 L-72,16 L-72,15 L-70,15 L-70,14 L-69,14 L-69,13 L-68,13 L-68,12 L-66,12 L-66,11 L-65,11 L-65,10 L-63,10 L-63,9 L-62,9 L-62,8 L-60,8 L-60,7 L-58,7 L-58,6 L-57,6 L-57,5 L-55,5 L-55,4 L-52,4 L-52,3 L-49,3 L-49,4 L-48,4 L-48,5 L-47,5 L-47,6 L-46,6 L-46,7 L-45,7 L-45,10 L-44,10 L-44,12 L-43,12 L-43,15 L-42,15 L-42,18 L-41,18 L-41,20 L-40,20 L-40,23 L-39,23 L-39,24 L-38,24 L-38,25 L-37,25 L-37,26 L-28,26 L-28,25 L-23,25 L-23,24 L-20,24 L-20,23 L-18,23 L-18,22 L-15,22 L-15,21 L-13,21 L-13,20 L-11,20 L-11,19 L-10,19 L-10,18 L-9,18 L-9,15 L-8,15 L-8,13 L-7,13 L-7,11 L-6,11 L-6,10 L-5,10 L-5,8 L-4,8 L-4,6 L-3,6 L-3,4 L-2,4 L-2,3 L-1,3 L-1,1 L0,1 Z" fill="url(#logoGradient)" transform="translate(106,58)"/>
</svg>
